<?xml version="1.0" encoding="UTF-8" standalone="no"?>
<!-- Generator: Adobe Illustrator 25.2.0, SVG Export Plug-In . SVG Version: 6.00 Build 0)  -->

<svg
   version="1.1"
   id="Layer_1"
   x="0px"
   y="0px"
   viewBox="0 0 486 129"
   style="enable-background:new 0 0 486 129;"
   xml:space="preserve"
   sodipodi:docname="emacs1.svg"
   inkscape:version="1.1.1 (c3084ef, 2021-09-22)"
   xmlns:inkscape="http://www.inkscape.org/namespaces/inkscape"
   xmlns:sodipodi="http://sodipodi.sourceforge.net/DTD/sodipodi-0.dtd"
   xmlns="http://www.w3.org/2000/svg"
   xmlns:svg="http://www.w3.org/2000/svg"><defs
   id="defs179">
	

	
		<linearGradient
   id="SVGID_1_"
   gradientUnits="userSpaceOnUse"
   x1="68.4"
   y1="12.5762"
   x2="68.4"
   y2="86.2111"
   gradientTransform="matrix(1,0,0,-1,0,131)">
		<stop
   offset="0.3033"
   style="stop-color:#473788"
   id="stop143" />
		<stop
   offset="0.872"
   style="stop-color:#2C2255"
   id="stop145" />
	</linearGradient>
	
	
		<linearGradient
   id="SVGID_2_"
   gradientUnits="userSpaceOnUse"
   x1="68.4"
   y1="12.5752"
   x2="68.4"
   y2="86.2101"
   gradientTransform="matrix(1,0,0,-1,0,131)">
		<stop
   offset="0.3033"
   style="stop-color:#473788"
   id="stop150" />
		<stop
   offset="0.872"
   style="stop-color:#2C2255"
   id="stop152" />
	</linearGradient>
	
	
		<linearGradient
   id="SVGID_3_"
   gradientUnits="userSpaceOnUse"
   x1="68.4"
   y1="12.5771"
   x2="68.4"
   y2="86.2084"
   gradientTransform="matrix(1,0,0,-1,0,131)">
		<stop
   offset="0.3033"
   style="stop-color:#473788"
   id="stop157" />
		<stop
   offset="0.8631"
   style="stop-color:#2C2255"
   id="stop159" />
	</linearGradient>
	

	
	
	

	
	
</defs><sodipodi:namedview
   id="namedview177"
   pagecolor="#ffffff"
   bordercolor="#666666"
   borderopacity="1.0"
   inkscape:pageshadow="2"
   inkscape:pageopacity="0.0"
   inkscape:pagecheckerboard="0"
   showgrid="false"
   inkscape:zoom="2.4104938"
   inkscape:cx="234.59923"
   inkscape:cy="24.476313"
   inkscape:window-width="1512"
   inkscape:window-height="866"
   inkscape:window-x="0"
   inkscape:window-y="38"
   inkscape:window-maximized="1"
   inkscape:current-layer="Layer_1" />
<style
   type="text/css"
   id="style111">
	.st0{fill:#2C2255;}
	.st1{fill:#F7941E;}
	.st2{fill:url(#SVGID_1_);}
	.st3{fill:url(#SVGID_2_);}
	.st4{fill:url(#SVGID_3_);}
	.st5{fill:#FFFFFF;}
	.st6{font-family:'OpenSans';}
	.st7{font-size:16px;}
</style>
<path
   class="st0"
   d="M38.1,76.9H21.4c2.2,7.6,6.3,14.4,12.4,20.4c9.6,9.6,21.1,14.4,34.7,14.4c2.7,0,5.3-0.2,7.9-0.6  c10.2-1.5,19.1-6.1,26.7-13.8c6.1-6,10.2-12.8,12.4-20.4h-6.8h-9.9H38.1z"
   id="path2462" />
<path
   class="st0"
   d="m 28.9,54.2 h -8.7 c -0.3,1.9 -0.5,3.9 -0.6,5.9 h 10.4 5.2 75.3 6.9 c -0.1,-2 -0.3,-4 -0.6,-5.9"
   id="path2468" /><path
   class="st0"
   d="m 19.5,65.6 c 0.1,2 0.3,4 0.6,5.9 h 9.1 6.9 73.6 6.8 c 0.3,-1.9 0.5,-3.9 0.6,-5.9"
   id="path2465" />
<path
   class="st0"
   d="M115.4,48.7c-2.2-7.6-6.4-14.5-12.4-20.5C95.3,20.6,86.5,16,76.3,14.5c-2.6-0.4-5.2-0.6-7.9-0.6  c-13.5,0-25,4.8-34.7,14.3c-6,6.1-10.1,12.9-12.4,20.5"
   id="path2471" />
<path
   class="st1"
   d="m 16.6,62.8 c 0,-25.8 19.4,-47.3 44.6,-51 -0.6,0 -1.3,0 -1.9,0 C 31,11.7 8.1,34.6 8.1,62.8 c 0,28.2 23,51.1 51.3,51.1 0.6,0 1.3,0 1.9,0 C 36,110.1 16.6,88.7 16.6,62.8 Z"
   id="path2474" />








<path
   class="st2"
   d="m 101.7,60.1 c -0.2,-2 -0.5,-4 -1,-5.9 H 36.1 c -0.5,1.9 -0.8,3.9 -1,5.9 z"
   id="path2483"
   style="fill:url(#SVGID_1_)" /><path
   class="st3"
   d="M 101.7,65.6 H 35.1 c 0.2,2 0.5,4 1,5.9 h 64.5 c 0.5,-1.9 0.9,-3.9 1.1,-5.9 z"
   id="path2480"
   style="fill:url(#SVGID_2_)" /><path
   class="st4"
   d="m 68.4,96.2 c 13.4,0 24.9,-7.9 30.3,-19.3 H 38.1 C 43.4,88.3 55,96.2 68.4,96.2 Z"
   id="path2477"
   style="fill:url(#SVGID_3_)" />
<path
   class="st5"
   d="m 30.2,65.6 h 4.9 66.7 8.8 6.7 c 0,-0.9 0.1,-1.7 0.1,-2.6 0,-1 0,-1.9 -0.1,-2.8 h -6.6 -8.8 -66.8 -5.2 -10.4 c -0.1,0.9 -0.1,1.9 -0.1,2.8 0,0.9 0,1.8 0.1,2.6 z"
   id="path2492" /><path
   class="st5"
   d="M 37.9,48.7 H 21.4 c -0.5,1.8 -0.9,3.6 -1.2,5.5 h 8.5 7.3 64.7 9.2 6.5 c -0.3,-1.9 -0.8,-3.7 -1.3,-5.5"
   id="path2489" /><path
   class="st5"
   d="m 110,71.5 h -9.2 -64.6 -6.9 -9.1 c 0.3,1.9 0.7,3.7 1.2,5.5 h 16.8 60.7 10 6.5 c 0.5,-1.8 1,-3.6 1.3,-5.5 z"
   id="path2486" />

<path
   d="m 201.07055,64.305925 h -45.98874 q 0,5.755578 1.73226,10.058291 1.73226,4.246834 4.74975,6.984925 2.90573,2.682211 6.87316,4.023316 4.02332,1.341106 8.82895,1.341106 6.37025,0 12.79638,-2.514573 6.48201,-2.570452 9.2201,-5.029146 h 0.55879 V 90.62512 q -5.30854,2.235176 -10.8406,3.74392 -5.53206,1.508743 -11.62291,1.508743 -15.53448,0 -24.25166,-8.381909 -8.71719,-8.437789 -8.71719,-23.916381 0,-15.310955 8.32603,-24.307537 8.38191,-8.996583 22.01648,-8.996583 12.62875,0 19.44603,7.37608 6.87317,7.376081 6.87317,20.954774 z m -10.22593,-8.046633 q -0.0559,-8.27015 -4.19095,-12.796382 -4.0792,-4.526231 -12.46111,-4.526231 -8.43779,0 -13.46693,4.973267 -4.97327,4.973266 -5.64382,12.349346 z"
   id="path2495"
   style="font-size:114.441px;line-height:1.25;fill:#2c2255;stroke-width:2.86103" /><path
   d="M 299.30301,94.424919 H 288.79769 V 58.885624 q 0,-4.023317 -0.39116,-7.767236 -0.33527,-3.74392 -1.50874,-5.979096 -1.28523,-2.402814 -3.68804,-3.63216 -2.40281,-1.229347 -6.92905,-1.229347 -4.41447,0 -8.82894,2.235176 -4.41447,2.179296 -8.82894,5.587939 0.16763,1.285226 0.27939,3.017488 0.11176,1.676382 0.11176,3.352763 V 94.424919 H 248.50864 V 58.885624 q 0,-4.135076 -0.39115,-7.823116 -0.33528,-3.743919 -1.50874,-5.979095 -1.28523,-2.402814 -3.68805,-3.576281 -2.40281,-1.229347 -6.92904,-1.229347 -4.30271,0 -8.66131,2.123417 -4.30271,2.123417 -8.60542,5.420301 V 94.424919 H 208.2196 V 32.007634 h 10.50533 v 6.929045 q 4.91738,-4.079195 9.77889,-6.370251 4.91739,-2.291055 10.44945,-2.291055 6.37025,0 10.78472,2.682211 4.47035,2.682211 6.64965,7.43196 6.37025,-5.364422 11.62291,-7.711357 5.25267,-2.402814 11.23176,-2.402814 10.28181,0 15.14332,6.258492 4.91738,6.202613 4.91738,17.378492 z"
   id="path2498"
   style="font-size:114.441px;line-height:1.25;fill:#2c2255;stroke-width:2.86103" /><path
   d="m 357.0788,94.424919 h -10.44945 v -6.649648 q -1.39699,0.94995 -3.7998,2.682211 -2.34693,1.676382 -4.58211,2.682211 -2.62633,1.285226 -6.03497,2.123417 -3.40865,0.89407 -7.99076,0.89407 -8.43779,0 -14.30512,-5.587939 -5.86734,-5.58794 -5.86734,-14.249246 0,-7.096683 3.01749,-11.455276 3.07336,-4.414472 8.71718,-6.929045 5.6997,-2.514573 13.69046,-3.408643 7.99075,-0.894071 17.15497,-1.341106 v -1.620502 q 0,-3.576281 -1.28523,-5.923216 -1.22934,-2.346935 -3.57628,-3.68804 -2.23517,-1.285226 -5.36442,-1.732261 -3.12925,-0.447036 -6.53789,-0.447036 -4.13507,0 -9.2201,1.117588 -5.08502,1.061709 -10.50533,3.129246 h -0.55879 V 33.34874 q 3.07337,-0.838191 8.88482,-1.84402 5.81146,-1.005829 11.45528,-1.005829 6.59377,0 11.45528,1.117588 4.91738,1.061708 8.49366,3.68804 3.52041,2.570452 5.36443,6.649648 1.84402,4.079196 1.84402,10.11417 z M 346.62935,79.058085 V 61.679593 q -4.80563,0.279397 -11.34352,0.838191 -6.48201,0.558794 -10.28181,1.620503 -4.52623,1.285226 -7.3202,4.023316 -2.79397,2.682211 -2.79397,7.43196 0,5.364422 3.24101,8.102512 3.241,2.682211 9.89065,2.682211 5.53206,0 10.11417,-2.123417 4.58211,-2.179296 8.49367,-5.196784 z"
   id="path2501"
   style="font-size:114.441px;line-height:1.25;fill:#2c2255;stroke-width:2.86103" /><path
   d="m 413.62523,90.513361 q -5.25266,2.514573 -10.00241,3.911558 -4.69387,1.396985 -10.00241,1.396985 -6.76141,0 -12.40523,-1.955779 -5.64381,-2.011658 -9.66713,-6.034975 -4.0792,-4.023316 -6.31437,-10.17005 -2.23518,-6.146733 -2.23518,-14.361004 0,-15.310954 8.38191,-24.02814 8.43779,-8.717186 22.24,-8.717186 5.36442,0 10.50533,1.508744 5.19678,1.508743 9.49949,3.68804 v 11.678794 h -0.55879 q -4.80563,-3.74392 -9.94653,-5.755578 -5.08503,-2.011658 -9.94654,-2.011658 -8.9407,0 -14.13748,6.034974 -5.14091,5.979096 -5.14091,17.60201 0,11.287638 5.02915,17.378492 5.08502,6.034975 14.24924,6.034975 3.18513,0 6.48201,-0.838191 3.29689,-0.838191 5.92322,-2.179297 2.29106,-1.173467 4.30271,-2.458693 2.01166,-1.341106 3.18513,-2.291055 h 0.55879 z"
   id="path2504"
   style="font-size:114.441px;line-height:1.25;fill:#2c2255;stroke-width:2.86103" /><path
   d="m 467.15418,76.431754 q 0,8.549547 -7.09669,14.025728 -7.0408,5.476181 -19.27839,5.476181 -6.92904,0 -12.7405,-1.620503 -5.75558,-1.676382 -9.66714,-3.63216 V 78.890447 h 0.5588 q 4.97327,3.74392 11.06412,5.979096 6.09085,2.179296 11.67879,2.179296 6.92905,0 10.84061,-2.235176 3.91155,-2.235176 3.91155,-7.040804 0,-3.68804 -2.12341,-5.587939 -2.12342,-1.8999 -8.1584,-3.241005 -2.23517,-0.502915 -5.86733,-1.173468 -3.57628,-0.670552 -6.53789,-1.452864 -8.21427,-2.179296 -11.67879,-6.370251 -3.40865,-4.246834 -3.40865,-10.393567 0,-3.855679 1.56462,-7.264322 1.62051,-3.408643 4.86151,-6.090854 3.12925,-2.626332 7.93488,-4.135075 4.8615,-1.564623 10.8406,-1.564623 5.58794,0 11.28764,1.396985 5.75557,1.341105 9.55537,3.296884 v 11.231758 h -0.55879 q -4.02332,-2.961608 -9.77889,-4.973266 -5.75558,-2.067537 -11.28764,-2.067537 -5.75558,0 -9.72302,2.235175 -3.96743,2.179297 -3.96743,6.53789 0,3.855678 2.40281,5.811457 2.34693,1.955779 7.5996,3.185125 2.90573,0.670553 6.48201,1.341106 3.63216,0.670553 6.03497,1.229347 7.3202,1.676381 11.28764,5.755577 3.96744,4.135076 3.96744,10.952362 z"
   id="path2507"
   style="font-size:114.441px;line-height:1.25;fill:#2c2255;stroke-width:2.86103" /><path
   d="m 456.93528,18.719188 q 0,2.078637 1.47479,3.553425 1.46898,1.468981 3.54762,1.468981 2.07864,0 3.55342,-1.468981 1.46899,-1.474788 1.46899,-3.553425 0,-2.078638 -1.46899,-3.547619 -1.47478,-1.474787 -3.55342,-1.474787 -2.07864,0 -3.54762,1.474787 -1.47479,1.468981 -1.47479,3.547619 z m 0.67353,0 q 0,-1.799938 1.27737,-3.088925 1.27157,-1.288988 3.07151,-1.288988 1.79994,0 3.07731,1.288988 1.27157,1.288987 1.27157,3.088925 0,1.799937 -1.27157,3.088925 -1.27737,1.288987 -3.07731,1.288987 -1.79994,0 -3.07151,-1.288987 -1.27737,-1.288988 -1.27737,-3.088925 z m 2.31089,2.305081 q 0.49933,0.226444 0.96383,0.342569 0.4587,0.110319 0.91158,0.110319 1.31802,0 2.08445,-0.714169 0.76642,-0.714169 0.76642,-2.072831 0,-1.306407 -0.77803,-2.055413 -0.78385,-0.749006 -2.07284,-0.749006 -0.51675,0 -1.01609,0.13935 -0.49934,0.13935 -0.85932,0.301925 v 1.050931 h 0.0929 q 0.31353,-0.23225 0.80706,-0.435469 0.48773,-0.203218 1.00449,-0.203218 0.82448,0 1.28898,0.499337 0.4587,0.493531 0.4587,1.451563 0,0.923193 -0.44128,1.428337 -0.44708,0.505144 -1.3064,0.505144 -0.48192,0 -0.93481,-0.168381 -0.45869,-0.168382 -0.87674,-0.470307 h -0.0929 z"
   id="path2510"
   style="font-size:11.8912px;line-height:1.25;fill:#2c2255;stroke-width:0.29728" /></svg>
