<?xml version="1.0" encoding="utf-8"?>
<!-- Generator: Adobe Illustrator 26.0.2, SVG Export Plug-In . SVG Version: 6.00 Build 0)  -->
<svg version="1.1" id="svg58926" xmlns:svg="http://www.w3.org/2000/svg"
	 xmlns="http://www.w3.org/2000/svg" xmlns:xlink="http://www.w3.org/1999/xlink" x="0px" y="0px" viewBox="0 0 713.3 245.2"
	 style="enable-background:new 0 0 713.3 245.2;" xml:space="preserve">
<style type="text/css">
	.st0{fill-rule:evenodd;clip-rule:evenodd;fill:#E24329;}
	.st1{fill-rule:evenodd;clip-rule:evenodd;fill:#FC6D26;}
	.st2{fill-rule:evenodd;clip-rule:evenodd;fill:#FCA326;}
	.st3{fill-rule:evenodd;clip-rule:evenodd;fill:#8C929D;}
</style>
<path id="path59005" class="st0" d="M133.1,245.2l49-150.9h-98L133.1,245.2z"/>
<path id="path59007" class="st1" d="M133.1,245.2l-49-150.9H15.4L133.1,245.2z"/>
<path id="path59009" class="st2" d="M15.4,94.4L0.5,140.2c-1.4,4.2,0.1,8.8,3.7,11.3l128.9,93.7L15.4,94.4z"/>
<path id="path59011" class="st0" d="M15.4,94.4h68.7L54.6,3.5c-1.5-4.7-8.1-4.7-9.7,0L15.4,94.4z"/>
<path id="path59013" class="st1" d="M133.1,245.2l49-150.9h68.7L133.1,245.2z"/>
<path id="path59015" class="st2" d="M250.8,94.4l14.9,45.8c1.4,4.2-0.1,8.8-3.7,11.3l-128.9,93.7L250.8,94.4z"/>
<path id="path59017" class="st0" d="M250.8,94.4h-68.7l29.5-90.9c1.5-4.7,8.1-4.7,9.7,0L250.8,94.4z"/>
<path id="path26995" class="st3" d="M379.2,109h11.4v62.2h-11.4V109z"/>
<path id="path26993" class="st3" d="M379.2,83.6h11.4V95h-11.4V83.6z"/>
<path id="path26991" class="st3" d="M436.3,109v9.9h-19v29.1c0,3.6,1.4,6.9,3.9,9.4c2.5,2.5,5.9,3.9,9.4,3.9h5.7v9.9h-5.7
	c-13.6,0-24.7-11.1-24.7-24.7V77.3h11.4V109H436.3z"/>
<path id="path26989" class="st3" d="M451.5,77.3v84v9.9l11.4,0l0-42.3h36.2l0,42.3l11.4,0v-9.9v-84h-11.4l0,41.6h-36.2l0-41.6H451.5
	z"/>
<path id="path26985" class="st3" d="M612.7,172.7c-7.4,0-15.5-1-24.2-3V77.3h11.4v35.6l1-0.6c0.1,0,6.4-4.1,15.2-4.1
	c1.8,0,3.5,0.2,5.2,0.5c14.4,2.9,23,14.6,23,31.1C644.3,159.1,631.3,172.7,612.7,172.7z M614,119.3c-4.5,0-9.3,1.6-13.7,4.5
	l-0.3,0.2v37.8l0.5,0.1c4.3,0.6,8.4,0.9,12.2,0.9c11.9,0,20.2-9.5,20.2-23.2C632.9,126.7,626,119.3,614,119.3L614,119.3z"/>
<path id="path26983" class="st3" d="M332.7,82.4c-19.4,0-31.4,15.4-31.4,40.2s12,40.2,31.4,40.2c7.3,0,14.1-2.1,19.6-6l0.3-0.2
	v-27.9h-27.9v-9.9H364v41.5c-8.3,8-19.1,12.3-31.3,12.3c-26,0-42.9-19.7-42.9-50.1s16.8-50.1,42.9-50.1c12.7,0,23.4,4.6,31,13.4
	l-7.6,6.3C350.3,85.7,342.5,82.4,332.7,82.4z"/>
<path id="path25604" class="st3" d="M566.5,108.1H578v63h-11.4V168l-1,0.6c-0.1,0-6.4,4.1-15.2,4.1c-1.8,0-3.5-0.2-5.2-0.5
	c-14.4-2.9-23-14.6-23-31.1v-33.1l11.4,0v33.1c0,12.9,6.9,20.4,18.9,20.4c4.5,0,9.3-1.6,13.7-4.5l0.3-0.2l0-37.8L566.5,108.1z"/>
</svg>
