<?xml version="1.0" encoding="UTF-8" standalone="no"?>
<svg
   id="svg859"
   version="1.1"
   viewBox="0 0 200 200"
   height="200mm"
   width="200mm"
   sodipodi:docname="ubuntu.svg"
   inkscape:version="1.1.1 (c3084ef, 2021-09-22)"
   xmlns:inkscape="http://www.inkscape.org/namespaces/inkscape"
   xmlns:sodipodi="http://sodipodi.sourceforge.net/DTD/sodipodi-0.dtd"
   xmlns="http://www.w3.org/2000/svg"
   xmlns:svg="http://www.w3.org/2000/svg"
   xmlns:rdf="http://www.w3.org/1999/02/22-rdf-syntax-ns#"
   xmlns:cc="http://creativecommons.org/ns#"
   xmlns:dc="http://purl.org/dc/elements/1.1/"
   xmlns:i="http://ns.adobe.com/AdobeIllustrator/10.0/">
  <sodipodi:namedview
     id="namedview128"
     pagecolor="#ffffff"
     bordercolor="#666666"
     borderopacity="1.0"
     inkscape:pageshadow="2"
     inkscape:pageopacity="0.0"
     inkscape:pagecheckerboard="0"
     inkscape:document-units="mm"
     showgrid="false"
     inkscape:zoom="2.1470749"
     inkscape:cx="327.18933"
     inkscape:cy="186.76572"
     inkscape:window-width="1312"
     inkscape:window-height="866"
     inkscape:window-x="0"
     inkscape:window-y="38"
     inkscape:window-maximized="0"
     inkscape:current-layer="layer1"
     width="200mm" />
  <defs
     id="defs853" />
  <metadata
     id="metadata856">
    <rdf:RDF>
      <cc:Work
         rdf:about="">
        <dc:format>image/svg+xml</dc:format>
        <dc:type
           rdf:resource="http://purl.org/dc/dcmitype/StillImage" />
      </cc:Work>
    </rdf:RDF>
  </metadata>
  <g
     transform="translate(-16.94182,-12.593271)"
     id="layer1"
     style="display:inline">
    <path
       style="fill:#a80030;stroke-width:0.703456"
       i:knockout="Off"
       d="m 47.400041,46.109432 c -1.050963,0.01407 0.197671,0.540254 1.570114,0.751995 0.38057,-0.296859 0.722449,-0.595124 1.029156,-0.886355 -0.853292,0.208926 -1.722764,0.213851 -2.59927,0.13436"
       id="path863" />
    <path
       style="fill:#a80030;stroke-width:0.703456"
       i:knockout="Off"
       d="m 53.039648,44.703224 c 0.628186,-0.864548 1.084026,-1.809993 1.245117,-2.787797 -0.141395,0.696422 -0.517744,1.297877 -0.875099,1.933801 -1.964753,1.237379 -0.185713,-0.734408 -0.0014,-1.484996 -2.111775,2.661174 -0.291231,1.595439 -0.368611,2.338992"
       id="path865" />
    <path
       style="fill:#a80030;stroke-width:0.703456"
       i:knockout="Off"
       d="m 55.123988,39.283799 c 0.128029,-1.893001 -0.372128,-1.293656 -0.540254,-0.572614 0.195561,0.102705 0.351024,1.33516 0.540254,0.572614"
       id="path867" />
    <path
       style="fill:#a80030;stroke-width:0.703456"
       i:knockout="Off"
       d="m 43.412852,13.41139 c 0.561358,0.09989 1.212759,0.177271 1.119199,0.311631 0.616227,-0.135767 0.754808,-0.258168 -1.119199,-0.311631"
       id="path869" />
    <path
       style="fill:#a80030;stroke-width:0.703456"
       i:knockout="Off"
       d="m 44.532754,13.723021 -0.394638,0.08231 0.367907,-0.03377 0.02673,-0.04854"
       id="path871" />
    <path
       style="fill:#a80030;stroke-width:0.703456"
       i:knockout="Off"
       d="m 62.027002,40.001324 c 0.06331,1.699549 -0.495937,2.525407 -1.001722,3.985781 l -0.909568,0.452323 c -0.743553,1.444898 0.07386,0.917306 -0.458654,2.06605 -1.162109,1.03197 -3.5215,3.228159 -4.277012,3.429348 -0.552213,-0.01196 0.373535,-0.6514 0.494529,-0.901127 -1.553934,1.066439 -1.247227,1.601066 -3.624205,2.250355 l -0.06894,-0.155463 c -5.859787,2.757547 -14.00018,-2.706196 -13.893255,-10.160015 -0.0619,0.472722 -0.177974,0.354541 -0.30741,0.544475 -0.302486,-3.834539 1.771302,-7.685961 5.268886,-9.260999 3.420906,-1.692515 7.431309,-0.998907 9.880039,1.286621 -1.345008,-1.76286 -4.024472,-3.631943 -7.197762,-3.458893 -3.109979,0.05065 -6.020176,2.026657 -6.990945,4.172901 -1.592625,1.002425 -1.778337,3.866194 -2.471945,4.390973 -0.934893,6.86573 1.75653,9.830797 6.310001,13.320642 0.714711,0.482571 0.201188,0.556434 0.296858,0.923638 -1.51243,-0.707677 -2.896832,-1.77693 -4.03643,-3.086061 0.604972,0.884244 1.257075,1.743867 2.100519,2.419185 -1.427312,-0.481868 -3.332974,-3.456079 -3.888001,-3.577074 2.458579,4.402228 9.973599,7.72043 13.910842,6.073639 -1.821951,0.06753 -4.135618,0.03728 -6.181268,-0.718932 -0.861733,-0.442474 -2.028767,-1.35767 -1.81984,-1.52861 5.37159,2.005553 10.919044,1.518058 15.566074,-2.206741 1.183213,-0.921528 2.474758,-2.488124 2.848293,-2.509228 -0.562061,0.845554 0.09637,0.406598 -0.335548,1.152965 1.176178,-1.900035 -0.51282,-0.773802 1.216979,-3.280919 l 0.638738,0.87932 c -0.239175,-1.578555 1.959125,-3.493363 1.735426,-5.987818 0.504378,-0.762546 0.562061,0.821637 0.02743,2.576056 0.742146,-1.946463 0.196264,-2.2595 0.386197,-3.866194 0.204706,0.540254 0.476943,1.113571 0.615524,1.684074 -0.483978,-1.881745 0.494529,-3.167663 0.737925,-4.261537 -0.240582,-0.105518 -0.746367,0.831485 -0.86314,-1.390029 0.01759,-0.965141 0.269423,-0.505785 0.365797,-0.743553 -0.188526,-0.109035 -0.68587,-0.849071 -0.987652,-2.267942 0.217368,-0.334142 0.585275,0.864548 0.88354,0.913086 -0.192043,-1.12764 -0.521964,-1.987967 -0.536033,-2.853921 -0.872286,-1.821951 -0.308817,0.243396 -1.015087,-0.782243 -0.928562,-2.894018 0.769581,-0.671801 0.884948,-1.985856 1.405505,2.036505 2.206741,5.195022 2.576055,6.502747 -0.281382,-1.594735 -0.735111,-3.140228 -1.290138,-4.635072 0.428405,0.180789 -0.688683,-3.280215 0.556434,-0.988355 -1.328829,-4.885502 -5.682518,-9.450932 -9.6887,-11.592252 0.488902,0.448102 1.10724,1.010866 0.886355,1.099502 -1.993594,-1.185323 -1.643273,-1.278883 -1.928877,-1.779744 -1.621466,-0.660545 -1.729798,0.05417 -2.802568,0.0014 -3.060034,-1.623576 -3.64953,-1.45123 -6.465464,-2.46702 l 0.128029,0.599344 c -2.026657,-0.675317 -2.361502,0.254652 -4.551361,0.0014 -0.132953,-0.103408 0.702049,-0.377052 1.390029,-0.476239 -1.959828,0.258871 -1.868379,-0.386901 -3.786,0.07105 0.472019,-0.331328 0.97288,-0.55151 1.476554,-0.832892 -1.597548,0.09708 -3.815545,0.929969 -3.131082,0.171643 -2.606305,1.163516 -7.235749,2.796238 -9.833612,5.232306 l -0.0816,-0.545882 c -1.190247,1.428719 -5.190801,4.267164 -5.509467,6.119364 l -0.318666,0.07386 c -0.618337,1.048852 -1.020011,2.23699 -1.511023,3.315388 -0.809678,1.380884 -1.187434,0.531812 -1.072067,0.748477 -1.593328,3.23027 -2.386123,5.944203 -3.069179,8.171345 0.486792,0.728077 0.01196,4.383938 0.195561,7.309611 -0.799126,14.4518 10.142429,28.48223 22.102588,31.720942 1.753012,0.628186 4.359317,0.605675 6.57661,0.667579 -2.61545,-0.748477 -2.953108,-0.396045 -5.502433,-1.28451 -1.83813,-0.866658 -2.240507,-1.855014 -3.543308,-2.985468 l 0.515633,0.910976 c -2.553541,-0.903925 -1.484991,-1.118479 -3.563,-1.776211 l 0.550806,-0.718228 c -0.827968,-0.06331 -2.192672,-1.39425 -2.565504,-2.133582 l -0.906052,0.03588 C 30.078141,66.736169 29.497789,65.76751 29.5407,65.016922 l -0.292638,0.521965 c -0.331327,-0.569096 -4.003368,-5.035338 -2.098409,-3.99563 -0.353838,-0.322183 -0.82445,-0.525482 -1.334456,-1.45334 l 0.387604,-0.442474 c -0.915196,-1.179696 -1.686887,-2.691423 -1.627797,-3.195097 0.488902,0.659841 0.827968,0.78365 1.16422,0.896906 C 23.42415,51.606237 23.294011,57.0334 21.541702,51.503533 l 0.370018,-0.02954 c -0.283493,-0.429812 -0.457247,-0.89339 -0.685166,-1.349932 l 0.161795,-1.607397 c -1.665784,-1.924656 -0.465688,-8.191746 -0.224403,-11.628128 0.165312,-1.397064 1.390733,-2.884873 2.321405,-5.218237 l -0.566986,-0.09708 c 1.08473,-1.890889 6.19182,-7.596621 8.558246,-7.303983 1.14593,-1.439271 -0.22792,-0.0056 -0.452322,-0.367204 2.517669,-2.604898 3.309057,-1.840241 5.007903,-2.309446 1.831096,-1.08684 -1.572224,0.424887 -0.704159,-0.414336 3.167662,-0.808271 2.244024,-1.838834 6.375421,-2.248949 0.436143,0.247617 -1.010866,0.38268 -1.373849,0.70416 2.63796,-1.291546 8.349319,-0.996798 12.060753,0.716118 4.30304,2.012587 9.140707,7.958901 9.332047,13.553487 l 0.217368,0.05839 c -0.109739,2.224328 0.340473,4.796867 -0.441067,7.159072 l 0.528296,-1.119198"
       id="path873" />
    <path
       style="fill:#a80030;stroke-width:0.703456"
       i:knockout="Off"
       d="m 35.92597,47.551517 -0.148429,0.736518 c 0.691497,0.939114 1.240193,1.956311 2.121623,2.687906 -0.634517,-1.237379 -1.105129,-1.748792 -1.973194,-3.424424"
       id="path875" />
    <path
       style="fill:#a80030;stroke-width:0.703456"
       i:knockout="Off"
       d="m 37.558692,47.488206 c -0.365797,-0.405191 -0.581055,-0.891982 -0.824451,-1.37596 0.232141,0.851885 0.707677,1.584183 1.148744,2.329846 l -0.324293,-0.953886"
       id="path877" />
    <path
       style="fill:#a80030;stroke-width:0.703456"
       i:knockout="Off"
       d="m 66.459478,41.206344 -0.154057,0.388308 c -0.282789,2.010477 -0.895499,3.99985 -1.832503,5.845015 1.035487,-1.946462 1.703067,-4.075824 1.98656,-6.233323"
       id="path879" />
    <path
       style="fill:#a80030;stroke-width:0.703456"
       i:knockout="Off"
       d="m 43.621779,12.907012 c 0.709787,-0.259575 1.745978,-0.142801 2.501489,-0.313741 -0.983431,0.0823 -1.961938,0.131546 -2.927783,0.254651 l 0.426294,0.05909"
       id="path881" />
    <path
       style="fill:#a80030;stroke-width:0.703456"
       i:knockout="Off"
       d="m 18.669491,26.175599 c 0.163905,1.515245 -1.139599,2.104037 0.288417,1.103723 0.766767,-1.726281 -0.298265,-0.47624 -0.288417,-1.103723"
       id="path883" />
    <path
       style="fill:#a80030;stroke-width:0.703456"
       i:knockout="Off"
       d="m 16.989638,33.19187 c 0.329921,-1.010867 0.389011,-1.617246 0.51493,-2.203225 -0.909569,1.163517 -0.41926,1.411837 -0.51493,2.203225"
       id="path885" />
    <path
       id="path937"
       style="font-style:normal;font-variant:normal;font-weight:bold;font-stretch:normal;font-size:28.6826px;line-height:1.25;font-family:Poppl-Laudatio;-inkscape-font-specification:'Poppl-Laudatio Bold';letter-spacing:-0.486833px;word-spacing:0px;fill:#000000;fill-opacity:1;stroke:none;stroke-width:0.717065"
       d="m 81.363455,47.790746 c -0.02815,2.075004 -0.08445,3.331696 -0.985247,4.676065 -0.506698,0.730634 -1.294896,1.519721 -2.78684,1.519721 -2.75869,0 -2.75869,-2.250356 -2.786839,-3.302471 v -7.247899 c 0.02815,-2.601062 0.02815,-2.893316 0.309648,-3.974655 -0.816347,0.555282 -2.87129,0.847536 -3.969135,0.847536 0.309648,0.37993 0.534848,0.642959 0.703747,1.519721 0.168899,0.993664 0.197049,2.104229 0.2252,3.273245 v 6.663392 c 0.02815,0.964439 0.02815,1.870425 0.647447,2.834865 0.591147,0.964438 1.351195,1.344368 2.223842,1.548946 0.534848,0.146126 1.069696,0.204577 1.604544,0.204577 3.321688,0 4.391384,-2.338032 4.898083,-3.594724 l 0.02815,3.507048 c 0.647448,-0.08768 1.266746,-0.175352 1.886043,-0.175352 0.562998,0 1.154146,0.05844 1.717144,0.175352 -0.253349,-0.321479 -0.591148,-0.672185 -0.731898,-1.724299 -0.168898,-1.110565 -0.225198,-3.185568 -0.225198,-4.266909 v -6.92642 c 0,-2.162679 0.112599,-2.805639 0.337799,-3.886978 -1.154146,0.584508 -3.180939,0.847536 -3.997286,0.847536 0.281499,0.292255 0.506698,0.526057 0.647447,1.432045 0.1689,0.876763 0.19705,2.133455 0.25335,3.565499 z" />
    <path
       id="path939"
       style="font-style:normal;font-variant:normal;font-weight:bold;font-stretch:normal;font-size:28.6826px;line-height:1.25;font-family:Poppl-Laudatio;-inkscape-font-specification:'Poppl-Laudatio Bold';letter-spacing:-0.486833px;word-spacing:0px;fill:#000000;fill-opacity:1;stroke:none;stroke-width:0.717065"
       d="m 88.063447,49.778074 c -0.02815,2.454933 -0.05629,3.740851 -0.394098,5.78663 1.041546,0.292254 2.927589,0.818311 5.038832,0.818311 6.446329,0 8.501269,-5.260573 8.501269,-9.673608 0,-1.139791 -0.1689,-2.776414 -0.70375,-4.003881 -0.36594,-0.876762 -1.125992,-2.045778 -2.758687,-2.630285 -0.647448,-0.233804 -1.323046,-0.350706 -2.026793,-0.350706 -3.349838,0 -4.503984,2.630286 -4.926233,3.5655 v -3.5655 c 0.0563,-3.331695 0.112601,-3.711626 0.365949,-5.552827 -1.801593,0.905988 -2.280141,1.052115 -4.363234,1.285918 0.394099,0.32148 1.266745,0.409156 1.266745,5.669729 z m 2.758691,-1.461271 c 0.0563,-1.665847 0.112599,-3.828527 1.379345,-5.14367 0.647448,-0.642959 1.520094,-0.993664 2.420891,-0.993664 2.899439,0 3.856531,2.92254 3.856531,5.611277 0,0.876763 -0.140746,3.127119 -0.872642,4.471487 -1.210445,2.338033 -3.715787,2.338033 -4.391384,2.338033 -1.125996,0 -1.829743,-0.175353 -2.392741,-0.32148 z" />
    <path
       id="path941"
       style="font-style:normal;font-variant:normal;font-weight:bold;font-stretch:normal;font-size:28.6826px;line-height:1.25;font-family:Poppl-Laudatio;-inkscape-font-specification:'Poppl-Laudatio Bold';letter-spacing:-0.486833px;word-spacing:0px;fill:#000000;fill-opacity:1;stroke:none;stroke-width:0.717065"
       d="m 113.28607,47.790746 c -0.0282,2.075004 -0.0845,3.331696 -0.98524,4.676065 -0.5067,0.730634 -1.2949,1.519721 -2.78684,1.519721 -2.75869,0 -2.75869,-2.250356 -2.78685,-3.302471 v -7.247899 c 0.0282,-2.601062 0.0282,-2.893316 0.30965,-3.974655 -0.81634,0.555282 -2.87128,0.847536 -3.96913,0.847536 0.30965,0.37993 0.53485,0.642959 0.70375,1.519721 0.16889,0.993664 0.19705,2.104229 0.2252,3.273245 v 6.663392 c 0.0282,0.964439 0.0282,1.870425 0.64745,2.834865 0.59114,0.964438 1.35119,1.344368 2.22384,1.548946 0.53485,0.146126 1.06969,0.204577 1.60454,0.204577 3.32169,0 4.39138,-2.338032 4.89808,-3.594724 l 0.0282,3.507048 c 0.64745,-0.08768 1.26675,-0.175352 1.88605,-0.175352 0.563,0 1.15414,0.05844 1.71714,0.175352 -0.25335,-0.321479 -0.59115,-0.672185 -0.73189,-1.724299 -0.16891,-1.110565 -0.2252,-3.185568 -0.2252,-4.266909 v -6.92642 c 0,-2.162679 0.1126,-2.805639 0.33779,-3.886978 -1.15414,0.584508 -3.18094,0.847536 -3.99728,0.847536 0.28149,0.292255 0.50669,0.526057 0.64745,1.432045 0.16889,0.876763 0.19705,2.133455 0.25334,3.565499 z" />
    <path
       id="path943"
       style="font-style:normal;font-variant:normal;font-weight:bold;font-stretch:normal;font-size:28.6826px;line-height:1.25;font-family:Poppl-Laudatio;-inkscape-font-specification:'Poppl-Laudatio Bold';letter-spacing:-0.486833px;word-spacing:0px;fill:#000000;fill-opacity:1;stroke:none;stroke-width:0.717065"
       d="m 132.70982,45.86187 c 0,-2.834864 -0.1126,-3.740852 -0.81635,-4.676064 -1.06969,-1.461271 -2.78684,-1.461271 -3.49058,-1.461271 -2.87129,0 -4.39139,0.993664 -5.62999,3.594725 v -1.490496 c 0,-1.081339 0,-1.665848 0.0282,-2.338032 -1.66085,0.642959 -3.23724,0.847537 -4.02544,0.847537 0.5067,0.438381 0.8445,0.75986 1.04155,2.54261 0.14074,1.46127 0.16889,2.980991 0.16889,4.471486 v 4.529938 c 0,2.338032 -0.19704,3.682401 -0.36594,4.413035 0.56299,-0.08768 1.18229,-0.175352 1.77345,-0.175352 0.59114,0 1.18228,0.08768 1.77344,0.175352 -0.4504,-1.373594 -0.4504,-2.630286 -0.4504,-4.822191 v -1.8412 c 0,-2.951766 0,-4.997544 1.23859,-6.400364 1.0134,-1.169016 2.47719,-1.256692 3.1528,-1.256692 2.78683,0 2.78683,2.045779 2.78683,3.682401 v 4.559163 c 0,3.419371 0,4.383811 -0.42225,6.078883 0.64745,-0.05844 1.26675,-0.146126 1.91419,-0.146126 0.6193,0 1.2386,0.08768 1.82975,0.146126 -0.4504,-1.022888 -0.47855,-2.688736 -0.5067,-4.062331 z" />
    <path
       id="path945"
       style="font-style:normal;font-variant:normal;font-weight:bold;font-stretch:normal;font-size:28.6826px;line-height:1.25;font-family:Poppl-Laudatio;-inkscape-font-specification:'Poppl-Laudatio Bold';letter-spacing:-0.486833px;word-spacing:0px;fill:#000000;fill-opacity:1;stroke:none;stroke-width:0.717065"
       d="m 136.86313,41.448834 c -0.6756,0 -1.32304,0 -2.28014,-0.08768 0.0282,0.350706 0.0563,0.70141 0.0563,1.052115 0,0.32148 -0.0282,0.672184 -0.0563,1.02289 0.98524,-0.05846 1.689,-0.08768 2.22384,-0.08768 l -0.1126,9.264453 c 0,0.555283 0,1.548946 0.59115,2.396483 0.45039,0.613733 1.26675,1.285917 3.43429,1.285917 0.3941,0 0.81635,-0.02922 1.71714,-0.116902 0.0282,-1.022889 0.0563,-1.285917 0.2815,-2.396483 -0.36595,0.146128 -0.7882,0.292255 -1.3512,0.292255 -0.70374,0 -1.15414,-0.263029 -1.37934,-0.526057 -0.4504,-0.526057 -0.47855,-1.373594 -0.47855,-2.893316 0,-2.454933 0,-4.880642 0.0282,-7.30635 0.6756,0.02922 1.5764,0.02922 2.84314,0.08768 -0.0563,-0.292254 -0.0844,-0.584509 -0.0844,-0.876763 0,-0.409155 0.0563,-0.789085 0.0844,-1.227466 -1.35119,0.08768 -2.11124,0.08768 -2.84314,0.116901 v -1.753524 c 0.0282,-2.513385 0.0563,-3.185569 0.2815,-4.237684 -1.4638,0.613734 -1.8579,0.730636 -3.34983,0.935214 0.30965,0.672184 0.36594,0.905987 0.39409,3.156343 z" />
    <path
       id="path947"
       style="font-style:normal;font-variant:normal;font-weight:bold;font-stretch:normal;font-size:28.6826px;line-height:1.25;font-family:Poppl-Laudatio;-inkscape-font-specification:'Poppl-Laudatio Bold';letter-spacing:-0.486833px;word-spacing:0px;fill:#000000;fill-opacity:1;stroke:none;stroke-width:0.717065"
       d="m 154.07755,47.790746 c -0.0282,2.075004 -0.0845,3.331696 -0.98525,4.676065 -0.5067,0.730634 -1.2949,1.519721 -2.78684,1.519721 -2.75869,0 -2.75869,-2.250356 -2.78684,-3.302471 v -7.247899 c 0.0282,-2.601062 0.0282,-2.893316 0.30965,-3.974655 -0.81635,0.555282 -2.87129,0.847536 -3.96913,0.847536 0.30965,0.37993 0.53484,0.642959 0.70374,1.519721 0.1689,0.993664 0.19705,2.104229 0.2252,3.273245 v 6.663392 c 0.0282,0.964439 0.0282,1.870425 0.64744,2.834865 0.59116,0.964438 1.3512,1.344368 2.22385,1.548946 0.53485,0.146126 1.0697,0.204577 1.60454,0.204577 3.32169,0 4.39139,-2.338032 4.89808,-3.594724 l 0.0282,3.507048 c 0.64745,-0.08768 1.26674,-0.175352 1.88604,-0.175352 0.56299,0 1.15415,0.05844 1.71714,0.175352 -0.25334,-0.321479 -0.59114,-0.672185 -0.7319,-1.724299 -0.16889,-1.110565 -0.22519,-3.185568 -0.22519,-4.266909 v -6.92642 c 0,-2.162679 0.11259,-2.805639 0.33779,-3.886978 -1.15414,0.584508 -3.18093,0.847536 -3.99728,0.847536 0.2815,0.292255 0.5067,0.526057 0.64745,1.432045 0.1689,0.876763 0.19705,2.133455 0.25335,3.565499 z" />
  </g>
</svg>
